<svg width="18" height="22" viewBox="0 0 18 22" fill="none" xmlns="http://www.w3.org/2000/svg">
<path d="M15.8562 8.06771V6.85614C15.8562 5.03778 15.1338 3.29389 13.848 2.00812C12.5623 0.722341 10.8184 0 9.00002 0C7.18165 0 5.43777 0.722341 4.15199 2.00812C2.86621 3.29389 2.14387 5.03778 2.14387 6.85614V8.06771C1.6514 8.23822 1.22303 8.55559 0.916488 8.97705C0.609945 9.39851 0.439961 9.90381 0.429443 10.4249V19.4244C0.444857 19.7822 0.531357 20.1332 0.683898 20.4572C0.836439 20.7811 1.05196 21.0714 1.3179 21.3112C1.58384 21.5509 1.89486 21.7353 2.23281 21.8536C2.57077 21.9718 2.9289 22.0216 3.2863 22H14.7137C15.0708 22.0216 15.4285 21.972 15.7662 21.854C16.1038 21.736 16.4146 21.5521 16.6805 21.3128C16.9464 21.0736 17.162 20.7838 17.3148 20.4604C17.4676 20.137 17.5546 19.7865 17.5706 19.4291V10.4296C17.561 9.90771 17.3915 9.40137 17.0849 8.97898C16.7783 8.55658 16.3494 8.2385 15.8562 8.06771V8.06771ZM9.00002 3.42886C9.90888 3.42969 10.7803 3.79099 11.4231 4.43351C12.0659 5.07602 12.4276 5.94728 12.4289 6.85614V7.85714H5.57116V6.85614C5.57241 5.94728 5.93411 5.07602 6.57692 4.43351C7.21973 3.79099 8.09115 3.42969 9.00002 3.42886V3.42886Z" fill="#636363"/>
</svg>
