<svg width="25" height="25" viewBox="0 0 25 25" fill="none" xmlns="http://www.w3.org/2000/svg">
<g id="Icons / Messaging / message" clip-path="url(#clip0_80_2855)">
<path id="Message" fill-rule="evenodd" clip-rule="evenodd" d="M25 5.25185C25 4.63617 24.7554 4.0457 24.3201 3.61035C23.8847 3.175 23.2943 2.93042 22.6786 2.93042H2.32143C1.70575 2.93042 1.11528 3.175 0.679931 3.61035C0.244578 4.0457 0 4.63617 0 5.25185L0 19.7483C0 20.364 0.244578 20.9544 0.679931 21.3898C1.11528 21.8251 1.70575 22.0697 2.32143 22.0697H22.6786C23.2943 22.0697 23.8847 21.8251 24.3201 21.3898C24.7554 20.9544 25 20.364 25 19.7483V5.25185ZM11.85 14.4358L4.82143 7.74471C4.70414 7.62907 4.62513 7.48026 4.59504 7.31833C4.56495 7.1564 4.58523 6.98914 4.65315 6.83909C4.72107 6.68904 4.83336 6.56343 4.97489 6.47918C5.11641 6.39493 5.28036 6.3561 5.44464 6.36792H19.5607C19.7255 6.35545 19.89 6.39406 20.032 6.47849C20.174 6.56292 20.2866 6.68907 20.3543 6.83976C20.422 6.99045 20.4417 7.15835 20.4106 7.3206C20.3794 7.48285 20.299 7.63157 20.1804 7.74649L13.0929 14.4376C12.9232 14.5932 12.7013 14.6794 12.4711 14.679C12.2409 14.6787 12.0192 14.5919 11.85 14.4358Z" fill="#636363"/>
</g>
<defs>
<clipPath id="clip0_80_2855">
<rect width="25" height="25" fill="white"/>
</clipPath>
</defs>
</svg>
