<svg width="22" height="22" viewBox="0 0 22 22" fill="none" xmlns="http://www.w3.org/2000/svg">
<g clip-path="url(#clip0_80_2771)">
<path d="M1.32788 18.777V17.1961C1.3572 16.6202 1.54339 16.0633 1.86634 15.5855C2.18928 15.1077 2.63668 14.7273 3.16017 14.4854V14.4854C8.19138 12.4645 13.8087 12.4645 18.8399 14.4854V14.4854C19.3634 14.7273 19.8108 15.1077 20.1337 15.5855C20.4567 16.0633 20.6428 16.6202 20.6722 17.1961V18.777C20.672 19.2007 20.5882 19.6202 20.4258 20.0116C20.2634 20.4029 20.0254 20.7584 19.7255 21.0578C19.4256 21.3571 19.0696 21.5944 18.678 21.756C18.2863 21.9177 17.8666 22.0006 17.4429 22H4.55717C4.13345 22.0006 3.71376 21.9177 3.32209 21.756C2.93043 21.5944 2.57447 21.3571 2.27456 21.0578C1.97465 20.7584 1.73668 20.4029 1.57424 20.0116C1.4118 19.6202 1.32809 19.2007 1.32788 18.777V18.777ZM11 2.29847e-07C9.93702 -0.000310589 8.89781 0.314622 8.0138 0.904967C7.1298 1.49531 6.44072 2.33455 6.03371 3.31655C5.6267 4.29854 5.52005 5.37918 5.72724 6.42179C5.93443 7.46441 6.44616 8.42216 7.1977 9.17392C7.94925 9.92569 8.90685 10.4377 9.9494 10.6452C10.992 10.8527 12.0726 10.7463 13.0547 10.3396C14.0369 9.93291 14.8763 9.24407 15.4669 8.36024C16.0575 7.47641 16.3727 6.43729 16.3727 5.37429C16.3729 4.6686 16.2341 3.96978 15.9642 3.31775C15.6943 2.66573 15.2986 2.07326 14.7997 1.57419C14.3007 1.07512 13.7084 0.679226 13.0564 0.409124C12.4045 0.139022 11.7057 1.99663e-07 11 2.29847e-07V2.29847e-07Z" fill="#636363"/>
</g>
<defs>
<clipPath id="clip0_80_2771">
<rect width="22" height="22" fill="white"/>
</clipPath>
</defs>
</svg>
